# xmcd
#
# Track frame offsets: 
#        150
#        9552
#        20851
#        32999
#        42533
#        53066
#        62023
#        72284
#        80802
#        92652
#        102597
#        113442
#        123378
#        133411
#        143759
#        154063
#        166601
#        180467
#        188345
#        200367
#
# Disc length: 2815 seconds
#
# Revision: 0
# Processed by: cddbd v1.5.2PL0 Copyright (c) Steve Scherf et al.
# Submitted via: ExactAudioCopy v0.95b2
#
DISCID=130afd14
DTITLE=Billy Byrd - Play It Pretty
DYEAR=1900
DGENRE=Country
TTITLE0=Byrdland Guitar
TTITLE1=A Falling Star
TTITLE2=Just A Little Loving
TTITLE3=Slipping Around
TTITLE4=Am I That Easy To Forget
TTITLE5=Walking The Floor Over You
TTITLE6=I Love You So Much
TTITLE7=Gibson Girl
TTITLE8=That's What It's Like To Be Lonesome
TTITLE9=Your Cheatin' Heart
TTITLE10=Candy Kisses
TTITLE11=Bee Byrd Bounce
TTITLE12=I Miss You Already
TTITLE13=Hey Good Looking
TTITLE14=Lonely Street
TTITLE15=You Win Again
TTITLE16=I Can't Help It
TTITLE17=Heartaches By The Numbers
TTITLE18=Have You Ever Been Lonely
TTITLE19=Half As Much
EXTD=
EXTT0=
EXTT1=
EXTT2=
EXTT3=
EXTT4=
EXTT5=
EXTT6=
EXTT7=
EXTT8=
EXTT9=
EXTT10=
EXTT11=
EXTT12=
EXTT13=
EXTT14=
EXTT15=
EXTT16=
EXTT17=
EXTT18=
EXTT19=
PLAYORDER=
